<svg width="234" height="106" fill="none" xmlns="http://www.w3.org/2000/svg"><path d="m30.876 57.233.05.05-.05-.05ZM44.549 37.065l-.05-.05.05.05ZM43.505 61.125l-.05.05.05-.05ZM50.352 60.127l.05.05-.05-.05Z" fill="#DA7343"/><path fill-rule="evenodd" clip-rule="evenodd" d="M151.492 45.532c-.137.002-.289-.092-.472-.231-.182-.14-.41-.352-.7-.535a4.492 4.492 0 0 0-1.043-.497c-.402-.139-.88-.208-1.436-.208-.611 0-1.157.125-1.637.375-.479.25-.888.608-1.225 1.072-.337.465-.594 1.027-.769 1.686-.174.66-.262 1.402-.262 2.228 0 .905.094 1.69.28 2.353.187.663.453 1.21.798 1.638.345.43.762.749 1.251.96.488.21 1.037.315 1.649.315.556 0 1.036-.065 1.44-.196.405-.13.651-.253 1.039-.47.292-.165.451-.27.72-.468.146-.108.271-.267.367-.287.139-.015.2 0 .246.031.045.03.083.092.114.184.03.092.053.22.068.386a7.563 7.563 0 0 1 .006 1.151c-.011.134-.028.25-.051.345a1.03 1.03 0 0 1-.091.248c-.039.069-.099.147-.184.234-.084.086-.245.198-.486.334a5.766 5.766 0 0 1-.882.39 7.905 7.905 0 0 1-2.639.436c-1.015 0-1.93-.157-2.747-.47a5.42 5.42 0 0 1-2.084-1.402c-.573-.623-1.012-1.4-1.317-2.33-.305-.931-.458-2.015-.458-3.251 0-1.26.168-2.378.504-3.354.336-.978.805-1.797 1.408-2.462a5.877 5.877 0 0 1 2.169-1.51c.843-.345 1.772-.516 2.787-.516.412 0 .809.034 1.191.104.382.069.735.159 1.058.27.325.111.617.24.876.386.26.146.441.27.544.375a1.3 1.3 0 0 1 .211.258.928.928 0 0 1 .091.262c.023.106.041.232.052.377.012.144.018.323.018.536 0 .229-.008.422-.023.582-.016.16-.042.29-.08.389a.527.527 0 0 1-.138.216.27.27 0 0 1-.163.066Z" fill="#FA6405"/><path d="M205.605 55.76c-.359.344-.717.644-1.094.849a3.51 3.51 0 0 1-1.703.416c-.692 0-1.277-.134-1.754-.401a3.358 3.358 0 0 1-1.171-1.082 4.694 4.694 0 0 1-.655-1.591 8.672 8.672 0 0 1-.204-1.916c0-.806.087-1.531.259-2.175.173-.644.426-1.193.758-1.646a3.356 3.356 0 0 1 1.241-1.047c.495-.244 1.065-.366 1.709-.366.509 0 .969.103 1.383.31.414.206.787.454 1.201.854.111.108.274.288.274.288.631-1.361 2.295-1.605 2.295-1.377l.001 7.55c0 2.37-2.54 2.805-2.54 2.524v-1.19Zm0-5.372c-.366-.46-.717-.812-1.053-1.056-.335-.244-.687-.366-1.053-.366a1.48 1.48 0 0 0-.86.25c-.24.165-.433.387-.579.665a3.526 3.526 0 0 0-.325.93 5.089 5.089 0 0 0-.108 1.051c0 .38.031.75.092 1.108.061.36.161.68.3.96.139.282.324.507.555.676.23.17.521.254.874.254.176 0 .348-.026.514-.077.166-.05.336-.133.509-.248.173-.116.35-.266.534-.452a9.03 9.03 0 0 0 .6-.686V50.388ZM197.907 51.827c0 .778-.117 1.489-.351 2.132a4.666 4.666 0 0 1-.996 1.645 4.421 4.421 0 0 1-1.546 1.051c-.6.247-1.266.37-1.997.37-.814 0-1.511-.125-2.091-.376a3.487 3.487 0 0 1-1.433-1.134c-.376-.505-.651-1.143-.823-1.912-.173-.77-.26-1.674-.26-2.711 0-.753.04-1.461.118-2.126.077-.665.193-1.273.345-1.826.153-.553.34-1.037.564-1.454.224-.417.454-.751.691-1.002.237-.251.468-.453.692-.606.223-.153.47-.288.741-.407.271-.118.573-.221.905-.31a10.33 10.33 0 0 1 1.087-.224l2.978-.43c.248-.036.193 2.272-1.892 2.576l-.512.073-.284.043c-.278.04-.521.087-.731.138-.21.05-.394.109-.554.174a2.14 2.14 0 0 0-.765.518c-.115.116-.22.263-.315.44a3.505 3.505 0 0 0-.243.584 5.694 5.694 0 0 0-.173.693c-.048.251-.092.512-.132.783a4.223 4.223 0 0 1 1.341-.93c.256-.112.529-.2.817-.264.288-.065.591-.097.909-.097.663 0 1.24.105 1.731.315.491.21.897.513 1.219.909.321.396.561.876.721 1.441.159.565.239 1.206.239 1.924Zm-2.603.137c0-.379-.035-.73-.102-1.054a2.52 2.52 0 0 0-.326-.84 1.638 1.638 0 0 0-.594-.563c-.247-.138-.543-.207-.89-.207-.23 0-.444.028-.64.086a2.381 2.381 0 0 0-.575.258 3.951 3.951 0 0 0-.553.416 8.307 8.307 0 0 0-.579.567 2.703 2.703 0 0 0-.011.263v.294c0 .635.038 1.187.113 1.657.074.47.194.86.36 1.17.166.31.383.54.651.689.267.149.594.222.98.222.346 0 .654-.065.925-.197.272-.132.498-.324.681-.577.184-.253.322-.564.418-.932.094-.369.142-.786.142-1.252ZM156.622 55.065c-.755 2.246-3.214 1.853-3.124 1.587l3.03-9.138a.798.798 0 0 1 .138-.28.57.57 0 0 1 .284-.169c.132-.04.311-.067.539-.081.226-.013.523-.02.888-.02.359 0 .651.008.878.025.227.017.404.046.533.086.129.041.222.097.28.168a.8.8 0 0 1 .137.27l2.031 6.14c.701 2.264-1.606 3.437-1.689 3.169l-2.189-7.07-.061-.254-.06.254-1.615 5.313ZM163.65 50.229c-.78-2.238 1.472-3.492 1.564-3.227l2.338 6.68 1.562-4.869c.764-2.243 3.215-1.88 3.124-1.615l-3.959 11.658c-.873 2.204-3.423 1.653-3.32 1.392l1.365-3.452a.703.703 0 0 1-.238-.188.898.898 0 0 1-.157-.27l-2.279-6.11ZM178.817 50.84v-1.273c0-2.37 2.56-2.806 2.56-2.525l.001 3.799h.521c.204 0 .389-.027.556-.082.167-.054.317-.14.454-.259.136-.119.26-.272.373-.462.111-.19.221-.424.331-.702l.765-1.982a.687.687 0 0 1 .102-.178.41.41 0 0 1 .207-.122c.098-.03.233-.053.405-.066.172-.014.397-.02.674-.02.25 0 .454.006.612.02.16.014.284.034.376.06.091.028.155.06.192.097a.187.187 0 0 1 .056.138c0 .068-.014.15-.041.244a4.161 4.161 0 0 1-.141.386l-.753 1.76c-.143.346-.29.637-.443.875a3.488 3.488 0 0 1-.457.585 2.289 2.289 0 0 1-.463.366 2.528 2.528 0 0 1-.478.219c.21.108.406.206.589.315.183.109.355.247.513.413.159.166.313.37.462.61.149.241.298.535.447.882l.863 1.995.102.229a1.002 1.002 0 0 1 .086.3l.005.091c0 .055-.019.1-.056.138a.437.437 0 0 1-.204.092 2.702 2.702 0 0 1-.392.056c-.163.013-.372.02-.631.02-.285 0-.52-.007-.702-.02a2.474 2.474 0 0 1-.428-.061.496.496 0 0 1-.225-.112.54.54 0 0 1-.111-.163l-.842-2.147a5.461 5.461 0 0 0-.345-.748c-.115-.2-.242-.36-.381-.479a1.262 1.262 0 0 0-.466-.254 2.187 2.187 0 0 0-.614-.076h-.518v1.46c0 2.37-2.56 2.807-2.56 2.525l-.002-3.983-.488-.002c-.244 0-.453.025-.625.076a1.326 1.326 0 0 0-.474.254c-.142.12-.273.279-.392.479-.119.2-.235.449-.351.748l-.835 2.147a.523.523 0 0 1-.111.163.487.487 0 0 1-.223.112 2.453 2.453 0 0 1-.421.061c-.179.013-.411.02-.695.02-.25 0-.456-.007-.618-.02a2.63 2.63 0 0 1-.391-.056.492.492 0 0 1-.208-.092.18.18 0 0 1-.06-.138c0-.054.013-.126.04-.219.027-.091.079-.225.154-.401l.876-1.996c.15-.346.3-.638.454-.875.152-.238.314-.44.483-.606.171-.167.347-.304.531-.413a4.86 4.86 0 0 1 .591-.295c-.162-.075-.325-.148-.488-.24a2.379 2.379 0 0 1-.483-.37 3.641 3.641 0 0 1-.473-.585 4.942 4.942 0 0 1-.447-.88l-.721-1.76a3.745 3.745 0 0 1-.143-.386.912.912 0 0 1-.04-.245.2.2 0 0 1 .05-.137.411.411 0 0 1 .187-.096c.091-.028.217-.048.376-.062.158-.013.363-.02.613-.02.284 0 .514.007.694.02.179.014.319.036.421.067.1.03.173.07.217.121.045.051.079.11.107.178l.721 1.983c.108.284.216.523.325.717.109.193.229.347.361.462.132.115.279.198.441.25.163.05.35.075.56.075h.486Z" fill="#FA6405"/><path fill-rule="evenodd" clip-rule="evenodd" d="M69.84 49.21c0 1.224-.152 2.32-.456 3.285-.305.966-.757 1.786-1.358 2.459a5.836 5.836 0 0 1-2.232 1.54c-.886.354-1.91.53-3.075.531-1.148 0-2.15-.15-3.007-.45-.856-.3-1.569-.76-2.14-1.375-.57-.617-.998-1.4-1.284-2.351-.285-.95-.428-2.076-.428-3.377 0-1.194.153-2.269.456-3.223.305-.955.757-1.767 1.359-2.436a5.929 5.929 0 0 1 2.231-1.54c.886-.358 1.915-.537 3.087-.537 1.118 0 2.105.148 2.961.445.856.297 1.571.753 2.146 1.37.575.616 1.008 1.393 1.3 2.333.293.94.44 2.048.44 3.326Zm-3.041.153c0-.8-.063-1.526-.187-2.181-.125-.655-.34-1.215-.64-1.681a3.052 3.052 0 0 0-1.203-1.082c-.5-.255-1.127-.383-1.878-.383-.76 0-1.392.143-1.901.43-.509.286-.92.668-1.233 1.147a4.751 4.751 0 0 0-.663 1.676 10.22 10.22 0 0 0-.193 2.028c0 .831.063 1.578.187 2.24.125.663.337 1.23.634 1.7.298.47.696.83 1.197 1.076.501.247 1.13.37 1.89.37.759 0 1.392-.14 1.9-.423.51-.282.92-.666 1.233-1.152a4.878 4.878 0 0 0 .663-1.7c.13-.647.194-1.335.194-2.065ZM103.509 55.004c0 .177-.005.326-.015.445a3.05 3.05 0 0 1-.041.301.87.87 0 0 1-.061.2.734.734 0 0 1-.158.193c-.081.078-.22.173-.416.285a4.128 4.128 0 0 1-.672.301c-.25.089-.523.16-.818.215a5.008 5.008 0 0 1-.911.081c-.698 0-1.316-.108-1.856-.326a3.487 3.487 0 0 1-1.358-.962c-.366-.425-.642-.942-.828-1.553-.187-.61-.28-1.31-.28-2.098 0-.91.113-1.696.34-2.358.228-.662.545-1.21.951-1.645a3.792 3.792 0 0 1 1.445-.967 5.13 5.13 0 0 1 2.629-.245c.261.048.505.112.732.194.227.081.431.173.61.275.179.101.307.19.381.265.075.074.127.137.158.188.03.05.054.117.07.2.017.08.031.181.041.3.011.119.015.264.015.434 0 .395-.033.672-.101.832-.068.16-.156.24-.265.24a.628.628 0 0 1-.366-.143 9.892 9.892 0 0 0-.458-.316 3.399 3.399 0 0 0-.629-.315 2.424 2.424 0 0 0-.876-.143c-.664 0-1.172.256-1.525.768-.352.511-.528 1.262-.528 2.251 0 .488.044.918.132 1.29.088.374.219.685.391.936.173.25.39.439.651.564.261.126.565.188.911.188.351 0 .656-.053.91-.158.253-.105.476-.223.665-.352.19-.13.35-.247.479-.352.128-.105.237-.158.325-.158.061 0 .111.017.153.051.041.034.073.098.096.19.023.091.042.209.056.352.014.144.021.328.021.552Z" fill="#FA6405"/><path d="M122.497 55.76c-.358.344-.717.644-1.094.849a3.51 3.51 0 0 1-1.704.416c-.691 0-1.276-.134-1.755-.401a3.36 3.36 0 0 1-1.169-1.082 4.737 4.737 0 0 1-.657-1.591 8.795 8.795 0 0 1-.202-1.916c0-.806.086-1.531.259-2.175.173-.644.426-1.193.758-1.646a3.348 3.348 0 0 1 1.241-1.047c.494-.244 1.064-.366 1.708-.366.509 0 .97.103 1.384.31.414.206.787.454 1.199.854.113.108.275.288.275.288.631-1.361 2.296-1.605 2.296-1.377l.001 7.55c0 2.37-2.541 2.805-2.541 2.524v-1.19h.001Zm0-5.372c-.366-.46-.717-.812-1.053-1.056-.336-.244-.687-.366-1.053-.366-.332 0-.619.083-.859.25a1.806 1.806 0 0 0-.58.665 3.527 3.527 0 0 0-.326.93 5.158 5.158 0 0 0-.106 1.051c0 .38.03.75.091 1.108.061.36.161.68.3.96.139.282.324.507.554.676.231.17.523.254.875.254.177 0 .348-.026.514-.077.166-.05.335-.133.508-.248.173-.116.351-.266.535-.452a9.03 9.03 0 0 0 .6-.686V50.388ZM132.741 53.027h-.647c-.311 0-.557.029-.74.087a1.32 1.32 0 0 0-.5.295 2.194 2.194 0 0 0-.421.548 5.963 5.963 0 0 0-.384.86l-.598 1.554a.817.817 0 0 1-.147.25.55.55 0 0 1-.255.147 2.116 2.116 0 0 1-.433.071c-.176.013-.4.02-.672.02-.238 0-.438-.003-.601-.01a2.76 2.76 0 0 1-.397-.04.46.46 0 0 1-.219-.091c-.045-.04-.067-.099-.067-.173 0-.075.026-.181.077-.32.051-.139.147-.364.289-.676l.62-1.433c.185-.42.408-.774.673-1.062.264-.288.566-.5.905-.635-.638-.15-1.141-.427-1.51-.83-.369-.405-.554-.933-.554-1.585 0-.483.097-.916.29-1.3.193-.383.481-.708.864-.973s.859-.469 1.428-.611c.569-.143 1.23-.214 1.982-.214a27.045 27.045 0 0 1 1.47.04l.772.046c.253.017.478.036.675.056.224.013.39.09.498.229.109.14.163.32.163.544v6.438c0 2.37-2.56 2.807-2.56 2.525l-.001-3.757Zm.021-4.281a5.475 5.475 0 0 0-.586-.072 8.448 8.448 0 0 0-.566-.02c-.356 0-.655.034-.894.102a1.58 1.58 0 0 0-.58.286 1.032 1.032 0 0 0-.319.44c-.064.17-.096.353-.096.55 0 .212.035.401.107.568.07.167.181.306.332.419.153.112.344.197.576.255.233.058.544.087.934.087h1.091v-2.615h.001ZM76.544 46.8v-1.106c0-2.37 2.56-2.806 2.56-2.525l.002 3.632c.833.033 1.566.172 2.2.416.633.244 1.163.58 1.59 1.006.427.427.749.946.965 1.556.217.61.325 1.297.325 2.063 0 .745-.11 1.424-.334 2.038a4.486 4.486 0 0 1-.987 1.595c-.433.451-.966.81-1.6 1.078-.633.268-1.354.425-2.16.473v.856c0 2.37-2.56 2.806-2.56 2.525v-3.381c-.828-.034-1.557-.171-2.191-.412a4.445 4.445 0 0 1-1.59-1.001 4.163 4.163 0 0 1-.972-1.555c-.22-.61-.33-1.298-.33-2.064 0-.745.114-1.426.34-2.042.228-.617.559-1.15.992-1.601.433-.45.965-.81 1.595-1.078.63-.267 1.348-.425 2.155-.472Zm5.04 5.148c0-.914-.192-1.636-.576-2.168-.384-.53-1.018-.844-1.902-.939v6.144c.795-.061 1.407-.344 1.835-.849.429-.504.643-1.233.643-2.188Zm-5.04-3.096c-.795.06-1.407.34-1.836.837-.429.497-.642 1.234-.642 2.209 0 .446.046.851.138 1.213.09.363.236.674.433.934.197.261.452.473.764.635.314.163.694.268 1.144.315v-6.143ZM91.931 49.567c0-2.37 2.54-2.806 2.54-2.525l.001 7.383c0 2.37-2.539 2.806-2.539 2.525v-1.189c-.388.365-.78.652-1.178.859a3.46 3.46 0 0 1-1.614.405c-.625 0-1.15-.102-1.574-.305a2.707 2.707 0 0 1-1.029-.834 3.352 3.352 0 0 1-.56-1.225c-.112-.464-.168-5.094-.168-5.094 0-2.37 2.56-2.806 2.56-2.525l.001 5.457c0 .474.03.837.092 1.088.06.25.154.466.28.645.125.18.284.32.478.418.193.098.418.147.676.147.326 0 .653-.119.982-.355.329-.236.68-.58 1.052-1.033v-3.842ZM114.303 54.258c0 2.37-2.56 2.807-2.56 2.525l-.002-3.902h-3.665v1.377c0 2.37-2.56 2.807-2.56 2.525l-.002-7.216c0-2.37 2.56-2.806 2.56-2.525l.002 3.736h3.665v-1.21c0-2.37 2.56-2.806 2.56-2.525l.002 7.215Z" fill="#FA6405"/><path fill-rule="evenodd" clip-rule="evenodd" d="m31.966 51.498 3.183-3.183a.621.621 0 0 1 .879 0l3.184 3.183a.622.622 0 0 1 0 .88l-3.183 3.182a.621.621 0 0 1-.88 0l-3.183-3.183a.621.621 0 0 1 0-.88ZM44.796 39.764l-3.184 3.185a.622.622 0 0 1-.88 0l-3.182-3.185a.622.622 0 0 1 0-.88l3.184-3.184a.622.622 0 0 1 .88 0l3.182 3.184a.622.622 0 0 1 0 .88Z" fill="#9CA4AA"/><path d="M53.932 58.577a.18.18 0 0 0-.178-.179H43.087a.176.176 0 0 0-.103.037V51.42c0-.795-.334-1.512-.867-2.02a2.855 2.855 0 0 0-.277-.329l-.053-.053-2.147-2.147h2.887a.175.175 0 0 0 .139-.072l7.342-7.343a.179.179 0 0 0 .053-.13.178.178 0 0 0-.053-.13l-4.321-4.322-.054-.054a2.8 2.8 0 0 0-3.85-.102.178.178 0 0 0 .023.223l4.384 4.385-4.752 4.752h-6.864c-.06 0-.11.03-.142.075l-7.654 7.655a.177.177 0 0 0-.052.13.176.176 0 0 0 .052.13L31.1 56.39l.053.054a2.8 2.8 0 0 0 3.851.102.178.178 0 0 0-.024-.223l-4.384-4.385 5.068-5.067h.027l4.5 4.5v6.398a2.79 2.79 0 0 0-1.082.672l-.053.053-5.046 5.045-4.077-4.077-.053-.053a2.8 2.8 0 0 0-3.851-.103.18.18 0 0 0 .023.224l6.11 6.11 1.722 1.721c.07.07.182.07.253 0l1.72-1.72 7.055-7.055.005-.003a2.797 2.797 0 0 0 2.79 2.607H51.141V67.031a2.8 2.8 0 0 0 2.65 2.796.18.18 0 0 0 .141-.175V58.577Z" fill="#FA6405"/><path d="m33.275 42.592.054.053a2.8 2.8 0 0 0 3.85.103.179.179 0 0 0-.023-.224l-3.08-3.08-.053-.053a2.8 2.8 0 0 0-3.851-.103.178.178 0 0 0 .023.224l3.08 3.08Z" fill="#FA6405"/><path d="M63.966 68.5c0 .157-.022.3-.065.427a1.144 1.144 0 0 1-.453.592c-.106.07-.223.129-.35.174-.129.046-.265.08-.41.101a3.217 3.217 0 0 1-.484.033h-1.176a.28.28 0 0 1-.19-.067c-.051-.044-.077-.117-.077-.217v-3.859c0-.1.026-.172.077-.217a.278.278 0 0 1 .19-.067h1.111c.272 0 .502.023.69.069.188.045.346.115.475.207a.92.92 0 0 1 .296.35c.068.141.103.308.103.5 0 .106-.014.208-.041.302a.896.896 0 0 1-.575.607c.125.023.241.063.347.12a.996.996 0 0 1 .464.536c.045.121.068.258.068.409Zm-1.163-1.864a.66.66 0 0 0-.041-.24.435.435 0 0 0-.123-.176.562.562 0 0 0-.207-.108 1.201 1.201 0 0 0-.334-.037h-.455v1.149h.503c.13 0 .234-.016.311-.046a.511.511 0 0 0 .308-.314.696.696 0 0 0 .038-.228Zm.229 1.894a.703.703 0 0 0-.052-.275.527.527 0 0 0-.15-.203.697.697 0 0 0-.253-.127 1.479 1.479 0 0 0-.4-.044h-.534v1.258h.65c.125 0 .23-.012.316-.039a.652.652 0 0 0 .223-.116.538.538 0 0 0 .147-.192.616.616 0 0 0 .053-.262ZM69.763 69.156c0 .057-.002.106-.005.146a.68.68 0 0 1-.015.102.294.294 0 0 1-.028.074.347.347 0 0 1-.055.07.683.683 0 0 1-.145.101c-.072.041-.16.08-.264.118a2.358 2.358 0 0 1-.788.132 2.28 2.28 0 0 1-.82-.14 1.624 1.624 0 0 1-.624-.419 1.871 1.871 0 0 1-.393-.696 3.113 3.113 0 0 1-.137-.971c0-.377.05-.71.15-1.002.101-.292.241-.538.421-.736a1.76 1.76 0 0 1 .649-.451c.252-.103.53-.154.832-.154.124 0 .242.01.356.03.114.02.22.048.317.08.097.034.184.072.261.115.078.043.132.08.162.111a.39.39 0 0 1 .064.077c.012.02.02.047.027.079.007.032.012.07.016.113a2.058 2.058 0 0 1-.002.335.447.447 0 0 1-.024.116.163.163 0 0 1-.041.065.082.082 0 0 1-.055.02c-.034 0-.078-.02-.13-.059a1.696 1.696 0 0 0-.501-.267 1.258 1.258 0 0 0-.412-.06 1 1 0 0 0-.47.108 1.001 1.001 0 0 0-.353.308c-.097.133-.17.294-.22.484-.05.189-.076.402-.076.64 0 .26.027.485.081.675.054.19.13.347.23.47.098.123.218.215.358.276.14.06.298.09.474.09.16 0 .298-.02.414-.056.116-.039.216-.08.299-.125a2.58 2.58 0 0 0 .205-.123c.053-.037.095-.055.125-.055a.1.1 0 0 1 .055.013c.014.01.025.028.034.055.01.028.016.066.02.115.006.049.008.114.008.197ZM75.064 69.475c0 .066-.002.12-.008.166a.439.439 0 0 1-.026.107.133.133 0 0 1-.043.06.091.091 0 0 1-.056.019h-2.223a.28.28 0 0 1-.19-.067c-.052-.044-.077-.117-.077-.217v-3.859c0-.1.025-.172.077-.217a.278.278 0 0 1 .19-.067h2.21c.02 0 .038.006.054.017.016.012.03.032.041.06a.48.48 0 0 1 .026.11c.005.044.008.1.008.169 0 .064-.002.118-.008.163a.44.44 0 0 1-.026.107.14.14 0 0 1-.04.06.085.085 0 0 1-.056.019h-1.58v1.08h1.337c.021 0 .04.007.057.02a.137.137 0 0 1 .043.057.41.41 0 0 1 .025.106c.006.044.009.099.009.163 0 .066-.003.12-.009.164a.41.41 0 0 1-.025.105.124.124 0 0 1-.043.056.098.098 0 0 1-.057.017h-1.337v1.248h1.594c.02 0 .04.007.056.02a.136.136 0 0 1 .043.06c.011.026.02.063.026.107.005.045.008.1.008.166Zm-1.597-4.895c0 .16-.032.271-.094.335-.063.064-.182.096-.358.096-.175 0-.294-.03-.355-.092-.062-.062-.093-.17-.093-.325 0-.162.032-.274.096-.337s.183-.094.356-.094c.178 0 .297.03.357.09.06.061.09.17.09.327Zm1.495 0c0 .16-.032.271-.096.335s-.184.096-.36.096c-.175 0-.293-.03-.353-.092-.061-.062-.091-.17-.091-.325 0-.162.031-.274.094-.337s.182-.094.357-.094c.176 0 .294.03.356.09.062.061.093.17.093.327ZM85.585 70.87a.098.098 0 0 1-.018.058.127.127 0 0 1-.061.04.626.626 0 0 1-.12.023 1.782 1.782 0 0 1-.385 0 .614.614 0 0 1-.12-.023.139.139 0 0 1-.065-.04.092.092 0 0 1-.018-.058v-1.043h-2.945v1.043a.091.091 0 0 1-.019.058.141.141 0 0 1-.065.04.667.667 0 0 1-.121.023 1.832 1.832 0 0 1-.383 0 .614.614 0 0 1-.122-.023.129.129 0 0 1-.063-.04.096.096 0 0 1-.017-.058v-1.59c-.005-.067.007-.114.036-.142.028-.029.07-.043.128-.043h.205c.055-.077.107-.157.156-.24.049-.081.096-.179.142-.292.045-.112.09-.247.135-.403a6.79 6.79 0 0 0 .132-.573c.043-.226.087-.493.131-.803.044-.308.09-.672.139-1.089a.447.447 0 0 1 .078-.224c.04-.047.098-.07.178-.07h2.261c.08 0 .142.023.188.07.046.047.069.118.069.214v3.41h.376c.061 0 .105.017.13.05.025.033.038.079.038.138v1.587Zm-1.44-4.744h-1.033c-.041.347-.081.652-.122.915-.04.264-.08.495-.12.693-.04.198-.08.37-.12.513-.042.143-.083.267-.126.373a1.885 1.885 0 0 1-.271.475h1.792v-2.969ZM91.687 69.71a.094.094 0 0 1-.021.06.154.154 0 0 1-.072.043.673.673 0 0 1-.139.026c-.058.005-.13.008-.217.008-.089 0-.162-.003-.219-.008a.698.698 0 0 1-.137-.026.156.156 0 0 1-.072-.042.095.095 0 0 1-.02-.06V66.14h-.951c-.064.522-.129.978-.195 1.368-.066.39-.137.724-.212 1.002a3.646 3.646 0 0 1-.248.684c-.09.178-.193.32-.308.423a.935.935 0 0 1-.39.214c-.145.038-.31.058-.494.058a.267.267 0 0 1-.09-.014.112.112 0 0 1-.06-.051.296.296 0 0 1-.031-.106 1.255 1.255 0 0 1-.01-.175c0-.098.002-.177.006-.237a.59.59 0 0 1 .025-.14c.01-.033.026-.056.044-.067a.122.122 0 0 1 .065-.017c.07 0 .138-.014.203-.042a.483.483 0 0 0 .188-.17c.06-.085.12-.203.175-.356.055-.153.11-.354.164-.603.054-.25.107-.555.16-.914.054-.36.108-.786.163-1.281.014-.116.04-.198.082-.245.041-.046.102-.07.181-.07h2.172c.082 0 .146.024.19.07.045.047.067.118.067.214v4.026ZM97.74 69.71a.094.094 0 0 1-.02.06.153.153 0 0 1-.07.043.634.634 0 0 1-.138.026c-.058.005-.13.008-.217.008-.089 0-.162-.003-.219-.008a.736.736 0 0 1-.138-.026.154.154 0 0 1-.074-.042.095.095 0 0 1-.02-.06v-1.656h-.332a.924.924 0 0 0-.313.041.532.532 0 0 0-.192.127.846.846 0 0 0-.148.214 2.556 2.556 0 0 0-.127.302l-.335.958a.224.224 0 0 1-.044.07.193.193 0 0 1-.084.048.622.622 0 0 1-.149.025 3.442 3.442 0 0 1-.484-.003.547.547 0 0 1-.138-.029c-.032-.012-.053-.026-.062-.042a.103.103 0 0 1-.013-.052.36.36 0 0 1 .012-.084 1.5 1.5 0 0 1 .05-.148l.331-.87c.043-.113.088-.212.134-.297a1.4 1.4 0 0 1 .152-.227.994.994 0 0 1 .178-.17.814.814 0 0 1 .207-.11 1.57 1.57 0 0 1-.375-.151.994.994 0 0 1-.273-.23.93.93 0 0 1-.168-.31 1.291 1.291 0 0 1-.056-.396c0-.201.034-.382.104-.546.07-.162.173-.301.31-.415.136-.114.307-.202.51-.265.205-.063.49-.094.854-.094h1.084c.074 0 .135.022.187.067.051.044.077.117.077.217v4.026Zm-.896-3.615h-.462c-.194 0-.339.015-.434.045a.604.604 0 0 0-.235.128.488.488 0 0 0-.131.202.797.797 0 0 0 .003.52.53.53 0 0 0 .137.205c.062.058.14.103.236.135.096.032.233.048.41.048h.476v-1.283ZM107.631 69.707a.103.103 0 0 1-.02.064.154.154 0 0 1-.074.042.703.703 0 0 1-.142.026 2.929 2.929 0 0 1-.467 0 .677.677 0 0 1-.145-.028.172.172 0 0 1-.082-.051.2.2 0 0 1-.041-.08l-.356-.985a2.303 2.303 0 0 0-.157-.361.94.94 0 0 0-.182-.236.575.575 0 0 0-.225-.128 1.005 1.005 0 0 0-.284-.038h-.202v1.772a.095.095 0 0 1-.021.063.15.15 0 0 1-.072.044.572.572 0 0 1-.137.028 2.532 2.532 0 0 1-.436 0 .603.603 0 0 1-.138-.028.169.169 0 0 1-.074-.044.091.091 0 0 1-.022-.063V65.52c0-.025.007-.046.022-.064a.165.165 0 0 1 .074-.042.67.67 0 0 1 .138-.026c.058-.005.131-.008.217-.008.089 0 .162.003.219.008a.7.7 0 0 1 .137.026.151.151 0 0 1 .072.042.098.098 0 0 1 .021.064v1.662h.202a.808.808 0 0 0 .27-.041.59.59 0 0 0 .211-.13.896.896 0 0 0 .17-.23c.051-.096.101-.213.149-.352l.298-.882a.299.299 0 0 1 .041-.08.156.156 0 0 1 .077-.052.635.635 0 0 1 .14-.027c.058-.006.136-.008.234-.008a2.6 2.6 0 0 1 .221.008.705.705 0 0 1 .137.024c.033.01.055.024.066.041a.106.106 0 0 1 .017.063.5.5 0 0 1-.015.11c-.011.043-.028.1-.053.17l-.298.787c-.055.146-.109.27-.164.373-.055.102-.112.19-.173.262a.942.942 0 0 1-.415.288v.004c.091.039.174.083.247.132.074.049.144.11.209.186s.127.168.186.277c.06.11.12.244.182.404l.363.916c.036.094.058.158.065.194.007.035.01.064.01.087ZM114.133 67.563c0 .367-.045.695-.137.985-.091.29-.227.535-.407.737-.18.202-.403.356-.668.462-.266.106-.573.159-.922.159a2.73 2.73 0 0 1-.902-.135 1.563 1.563 0 0 1-.641-.413 1.771 1.771 0 0 1-.385-.705 3.53 3.53 0 0 1-.128-1.012c0-.358.045-.68.137-.967.091-.285.227-.529.407-.73.18-.2.403-.354.668-.462.266-.107.574-.16.925-.16a2.7 2.7 0 0 1 .888.133c.257.09.471.226.643.41.172.186.302.419.39.7.088.282.132.615.132.998Zm-.944.047c0-.232-.018-.444-.055-.634a1.354 1.354 0 0 0-.186-.49.893.893 0 0 0-.351-.314 1.199 1.199 0 0 0-.547-.111c-.221 0-.406.041-.554.125a1.02 1.02 0 0 0-.359.333 1.37 1.37 0 0 0-.194.487 2.94 2.94 0 0 0-.056.59c0 .242.018.46.055.652.036.193.098.358.185.495a.84.84 0 0 0 .348.312c.146.073.33.108.551.108.221 0 .406-.04.554-.123a.994.994 0 0 0 .359-.335c.092-.141.156-.306.194-.494a3.11 3.11 0 0 0 .056-.6ZM122.078 69.704a.109.109 0 0 1-.018.061.136.136 0 0 1-.069.045.662.662 0 0 1-.132.027c-.055.006-.123.01-.208.01-.082 0-.151-.004-.205-.01a.639.639 0 0 1-.13-.027.137.137 0 0 1-.068-.045.099.099 0 0 1-.021-.061v-3.602h-.007l-1.283 3.598a.164.164 0 0 1-.044.073.218.218 0 0 1-.084.047.547.547 0 0 1-.135.022 2.888 2.888 0 0 1-.397-.003.639.639 0 0 1-.135-.027.258.258 0 0 1-.084-.046.13.13 0 0 1-.04-.065l-1.239-3.599h-.007v3.602a.109.109 0 0 1-.018.062.135.135 0 0 1-.07.044.73.73 0 0 1-.132.027c-.053.007-.123.01-.207.01-.082 0-.151-.003-.205-.01a.662.662 0 0 1-.132-.027c-.033-.011-.056-.026-.068-.044a.103.103 0 0 1-.019-.062V65.76c0-.116.031-.205.092-.267a.333.333 0 0 1 .247-.092h.588c.105 0 .195.008.27.025a.485.485 0 0 1 .332.242c.037.066.069.146.096.242l.958 2.637h.013l.992-2.63a1.45 1.45 0 0 1 .098-.243.553.553 0 0 1 .123-.16.403.403 0 0 1 .165-.088.85.85 0 0 1 .223-.026h.605c.062 0 .115.008.159.024a.27.27 0 0 1 .11.07c.028.031.05.07.065.113a.508.508 0 0 1 .022.153v3.944h-.001ZM129.405 67.48c0 .25-.04.474-.119.676a1.434 1.434 0 0 1-.348.523 1.73 1.73 0 0 1-.575.356c-.229.09-.493.147-.792.17v.512a.093.093 0 0 1-.022.06.16.16 0 0 1-.072.041.708.708 0 0 1-.137.022 2.733 2.733 0 0 1-.214.007c-.087 0-.158-.002-.214-.007a.694.694 0 0 1-.135-.022.17.17 0 0 1-.074-.04.09.09 0 0 1-.022-.061v-.513a3.025 3.025 0 0 1-.795-.131 1.553 1.553 0 0 1-.573-.32 1.334 1.334 0 0 1-.348-.517 2.006 2.006 0 0 1-.117-.721c0-.235.039-.45.117-.649a1.45 1.45 0 0 1 .349-.516 1.79 1.79 0 0 1 .573-.36c.228-.091.493-.15.794-.175v-.486a.08.08 0 0 1 .022-.058.159.159 0 0 1 .074-.037.876.876 0 0 1 .137-.023 2.465 2.465 0 0 1 .425 0 .876.876 0 0 1 .137.023c.033.009.057.021.072.037a.078.078 0 0 1 .023.058v.486c.301.016.566.062.794.138.228.077.419.183.573.32.154.136.27.306.348.508.079.202.119.435.119.7Zm-2.709-.984a1.3 1.3 0 0 0-.444.116.878.878 0 0 0-.288.219.838.838 0 0 0-.16.296c-.033.11-.049.227-.049.35 0 .151.016.286.049.406.034.12.087.223.16.31.073.09.169.16.288.217.12.056.268.094.444.114v-2.028Zm1.802 1.022c0-.143-.016-.274-.048-.392a.792.792 0 0 0-.157-.306.81.81 0 0 0-.289-.212 1.48 1.48 0 0 0-.446-.112v2.028c.173-.02.32-.06.439-.118a.853.853 0 0 0 .291-.22.831.831 0 0 0 .161-.305c.033-.114.049-.235.049-.363ZM136.156 67.563c0 .367-.045.695-.137.985-.091.29-.227.535-.407.737a1.75 1.75 0 0 1-.669.462c-.265.106-.573.159-.921.159-.345 0-.645-.045-.901-.135a1.56 1.56 0 0 1-.642-.413 1.77 1.77 0 0 1-.384-.705 3.528 3.528 0 0 1-.128-1.012c0-.358.045-.68.137-.967.091-.285.226-.529.407-.73.18-.2.403-.354.668-.462a2.47 2.47 0 0 1 .926-.16c.335 0 .631.044.887.133.257.09.471.226.643.41.172.186.302.419.39.7.088.282.131.615.131.998Zm-.944.047c0-.232-.018-.444-.055-.634a1.354 1.354 0 0 0-.186-.49.89.89 0 0 0-.35-.314 1.203 1.203 0 0 0-.548-.111 1.12 1.12 0 0 0-.554.125 1.029 1.029 0 0 0-.359.333 1.387 1.387 0 0 0-.193.487 2.939 2.939 0 0 0-.057.59c0 .242.019.46.055.652.037.193.098.358.185.495a.848.848 0 0 0 .349.312c.146.073.329.108.55.108.221 0 .406-.04.555-.123.148-.082.267-.194.359-.335.091-.141.155-.306.193-.494a3.11 3.11 0 0 0 .056-.6ZM141.974 66.745c0 .249-.039.469-.117.66-.077.192-.19.353-.338.484-.148.132-.33.231-.546.3a2.516 2.516 0 0 1-.76.103h-.37v1.412a.099.099 0 0 1-.022.062.158.158 0 0 1-.074.044.677.677 0 0 1-.137.027c-.057.007-.13.01-.219.01-.086 0-.158-.003-.217-.01a.735.735 0 0 1-.138-.027.146.146 0 0 1-.072-.044.099.099 0 0 1-.021-.062v-3.981c0-.107.028-.187.084-.24a.304.304 0 0 1 .22-.081h1.044c.105 0 .204.004.299.012s.208.025.341.05c.132.027.266.075.402.146a1.131 1.131 0 0 1 .566.648c.05.145.075.307.075.487Zm-.941.065a.79.79 0 0 0-.082-.383.57.57 0 0 0-.202-.222.68.68 0 0 0-.251-.09 2.01 2.01 0 0 0-.272-.02h-.383v1.502h.403a.98.98 0 0 0 .361-.058.621.621 0 0 0 .378-.412c.032-.097.048-.203.048-.317ZM147.617 65.77c0 .067-.002.123-.008.17a.397.397 0 0 1-.026.113.146.146 0 0 1-.042.063.089.089 0 0 1-.056.02h-1.109v3.568a.1.1 0 0 1-.022.062.158.158 0 0 1-.074.044.689.689 0 0 1-.138.027 1.96 1.96 0 0 1-.217.01c-.087 0-.159-.003-.218-.01a.704.704 0 0 1-.138-.027.15.15 0 0 1-.073-.044.095.095 0 0 1-.023-.062v-3.568h-1.108a.089.089 0 0 1-.059-.02.165.165 0 0 1-.041-.064.49.49 0 0 1-.025-.112 1.618 1.618 0 0 1 0-.344.501.501 0 0 1 .025-.115.15.15 0 0 1 .041-.061.094.094 0 0 1 .059-.02h3.119c.021 0 .039.007.057.02a.134.134 0 0 1 .042.061c.011.029.02.067.026.115.005.048.008.106.008.174ZM153.627 69.704a.094.094 0 0 1-.023.061.15.15 0 0 1-.073.045.708.708 0 0 1-.137.027c-.057.006-.129.01-.215.01-.089 0-.163-.004-.221-.01a.677.677 0 0 1-.137-.027.156.156 0 0 1-.072-.045.094.094 0 0 1-.022-.061v-1.79h-1.656v1.79a.103.103 0 0 1-.02.061.145.145 0 0 1-.073.045.692.692 0 0 1-.137.027c-.057.006-.13.01-.219.01-.087 0-.159-.004-.217-.01a.689.689 0 0 1-.138-.027.158.158 0 0 1-.074-.045.1.1 0 0 1-.022-.061v-4.18a.1.1 0 0 1 .022-.061.158.158 0 0 1 .074-.045.696.696 0 0 1 .138-.027c.058-.007.13-.01.217-.01.089 0 .162.003.219.01a.7.7 0 0 1 .137.027.145.145 0 0 1 .073.045c.014.018.02.038.02.061v1.625h1.656v-1.625c0-.023.007-.043.022-.061a.156.156 0 0 1 .072-.045.684.684 0 0 1 .137-.027c.058-.007.132-.01.221-.01.086 0 .158.003.215.01a.715.715 0 0 1 .137.027.15.15 0 0 1 .073.045.095.095 0 0 1 .023.061v4.18ZM160.604 67.563c0 .367-.046.695-.137.985-.092.29-.227.535-.407.737a1.75 1.75 0 0 1-.669.462c-.266.106-.573.159-.922.159-.344 0-.644-.045-.901-.135a1.563 1.563 0 0 1-.641-.413 1.771 1.771 0 0 1-.385-.705 3.563 3.563 0 0 1-.128-1.012c0-.358.046-.68.137-.967.091-.285.227-.529.407-.73.18-.2.403-.354.669-.462.266-.106.574-.16.925-.16.335 0 .631.044.888.133.256.09.47.226.643.41.171.186.301.419.39.7.087.282.131.615.131.998Zm-.944.047c0-.232-.018-.444-.055-.634a1.372 1.372 0 0 0-.186-.49.893.893 0 0 0-.351-.314 1.199 1.199 0 0 0-.547-.111c-.221 0-.406.041-.554.125a1.02 1.02 0 0 0-.359.333 1.35 1.35 0 0 0-.193.487 3.471 3.471 0 0 0-.002 1.241c.036.194.098.359.185.496a.84.84 0 0 0 .348.312c.146.073.33.108.551.108.221 0 .406-.04.554-.123a.994.994 0 0 0 .359-.335c.092-.141.156-.306.194-.494a3.11 3.11 0 0 0 .056-.6ZM166.993 69.71a.09.09 0 0 1-.023.06.162.162 0 0 1-.073.043.662.662 0 0 1-.138.026 2.532 2.532 0 0 1-.435 0 .664.664 0 0 1-.137-.026.15.15 0 0 1-.07-.042.093.093 0 0 1-.021-.06v-2.333a7.452 7.452 0 0 1 .014-.49h-.007a5.792 5.792 0 0 1-.146.245 3.692 3.692 0 0 1-.186.286l-1.539 2.295a.485.485 0 0 1-.056.065.204.204 0 0 1-.075.042.466.466 0 0 1-.114.02 2.445 2.445 0 0 1-.388-.003.576.576 0 0 1-.128-.024c-.031-.012-.052-.027-.063-.045a.124.124 0 0 1-.017-.065v-4.187c0-.023.008-.042.022-.06a.17.17 0 0 1 .075-.042.716.716 0 0 1 .139-.026c.056-.005.128-.008.215-.008.089 0 .162.003.219.008a.692.692 0 0 1 .137.026.152.152 0 0 1 .072.042.093.093 0 0 1 .021.06v2.346c0 .074-.001.151-.004.233a6 6 0 0 1-.01.24h.007a6.664 6.664 0 0 1 .332-.527l1.539-2.295a.33.33 0 0 1 .052-.06.21.21 0 0 1 .073-.043.476.476 0 0 1 .115-.024 2.296 2.296 0 0 1 .384.001.613.613 0 0 1 .129.026.143.143 0 0 1 .067.042.11.11 0 0 1 .018.064v4.19Zm-.523-5.496c0 .126-.022.246-.065.361a.778.778 0 0 1-.21.305 1.07 1.07 0 0 1-.383.21 1.874 1.874 0 0 1-.584.078c-.223 0-.413-.024-.571-.072a1.06 1.06 0 0 1-.384-.196.736.736 0 0 1-.218-.3 1.046 1.046 0 0 1-.068-.386c0-.034.006-.062.019-.084a.132.132 0 0 1 .063-.053.405.405 0 0 1 .121-.029 1.908 1.908 0 0 1 .375.002.326.326 0 0 1 .109.03.118.118 0 0 1 .053.054.167.167 0 0 1 .016.077.357.357 0 0 0 .128.279.522.522 0 0 0 .155.087c.062.023.13.034.205.034.074 0 .139-.01.199-.032s.11-.05.152-.086a.338.338 0 0 0 .096-.126.394.394 0 0 0 .033-.163.18.18 0 0 1 .013-.072.11.11 0 0 1 .053-.051.345.345 0 0 1 .106-.031c.045-.007.101-.01.17-.01.082 0 .149.003.203.008a.484.484 0 0 1 .128.03.134.134 0 0 1 .067.052c.013.022.019.05.019.084ZM176.635 66.745c0 .249-.039.469-.117.66-.077.192-.19.353-.338.484-.148.132-.33.231-.546.3a2.518 2.518 0 0 1-.761.103h-.369v1.412a.099.099 0 0 1-.022.062.158.158 0 0 1-.074.044.692.692 0 0 1-.137.027c-.057.007-.13.01-.219.01-.087 0-.159-.003-.217-.01a.719.719 0 0 1-.138-.027.146.146 0 0 1-.072-.044.099.099 0 0 1-.021-.062v-3.981c0-.107.028-.187.084-.24a.304.304 0 0 1 .22-.081h1.044c.105 0 .204.004.299.012s.208.025.34.05c.133.027.267.075.402.146a1.148 1.148 0 0 1 .567.648c.049.145.075.307.075.487Zm-.941.065a.79.79 0 0 0-.082-.383.57.57 0 0 0-.202-.222.68.68 0 0 0-.251-.09 2.01 2.01 0 0 0-.272-.02h-.383v1.502h.403a.98.98 0 0 0 .361-.058.621.621 0 0 0 .378-.412c.032-.097.048-.203.048-.317ZM182.599 69.492c.028.082.045.147.052.195.007.047-.003.084-.027.107-.025.025-.07.039-.134.045a4.883 4.883 0 0 1-.535.003.619.619 0 0 1-.149-.021.137.137 0 0 1-.072-.043.218.218 0 0 1-.034-.072l-.298-.889h-1.662l-.281.866a.27.27 0 0 1-.036.08.14.14 0 0 1-.072.051.52.52 0 0 1-.14.026 3.23 3.23 0 0 1-.484-.003c-.059-.007-.1-.023-.123-.05-.023-.026-.03-.063-.024-.11.007-.049.024-.113.052-.192l1.364-3.927a.364.364 0 0 1 .048-.094.178.178 0 0 1 .087-.055.713.713 0 0 1 .167-.024 7.054 7.054 0 0 1 .602 0 .847.847 0 0 1 .186.024.183.183 0 0 1 .096.057.32.32 0 0 1 .049.103l1.368 3.923Zm-2.031-3.246h-.004l-.626 1.88h1.256l-.626-1.88ZM188.458 68.455c0 .201-.034.384-.102.551a1.16 1.16 0 0 1-.31.432 1.449 1.449 0 0 1-.525.286c-.212.068-.487.103-.824.103h-1.167a.295.295 0 0 1-.2-.067c-.051-.044-.076-.12-.076-.228v-3.847c0-.101.025-.173.076-.218a.28.28 0 0 1 .19-.067h2.504c.023 0 .042.006.06.017a.14.14 0 0 1 .044.06.404.404 0 0 1 .027.11c.006.044.008.1.008.17 0 .063-.002.117-.008.162a.44.44 0 0 1-.027.11.153.153 0 0 1-.044.06.099.099 0 0 1-.057.02h-1.874v1.1h.735c.285 0 .52.028.705.083.185.055.341.135.468.242.128.108.226.239.295.394.068.155.102.331.102.527Zm-.913.059a.7.7 0 0 0-.048-.266.544.544 0 0 0-.14-.201.62.62 0 0 0-.237-.129 1.379 1.379 0 0 0-.388-.044h-.579v1.276h.589c.146 0 .266-.014.361-.041a.577.577 0 0 0 .388-.325.636.636 0 0 0 .054-.27ZM195.155 67.563c0 .367-.045.695-.137.985-.091.29-.227.535-.407.737a1.75 1.75 0 0 1-.669.462c-.265.106-.573.159-.921.159a2.73 2.73 0 0 1-.902-.135 1.563 1.563 0 0 1-.641-.413 1.758 1.758 0 0 1-.384-.705 3.527 3.527 0 0 1-.129-1.012c0-.358.046-.68.137-.967.091-.285.227-.529.408-.73.18-.2.402-.354.668-.462.266-.107.575-.16.926-.16.335 0 .63.044.887.133.256.09.471.226.643.41.172.186.302.419.39.7.087.282.131.615.131.998Zm-.944.047c0-.232-.018-.444-.055-.634a1.372 1.372 0 0 0-.186-.49.893.893 0 0 0-.351-.314 1.199 1.199 0 0 0-.547-.111c-.221 0-.406.041-.554.125a1.02 1.02 0 0 0-.359.333 1.369 1.369 0 0 0-.193.487 3.471 3.471 0 0 0-.002 1.241c.036.194.098.359.185.496a.84.84 0 0 0 .348.312c.146.073.33.108.551.108.221 0 .406-.04.555-.123a.991.991 0 0 0 .358-.335c.091-.141.156-.306.194-.494a3.11 3.11 0 0 0 .056-.6ZM200.74 65.77c0 .067-.003.123-.008.17a.438.438 0 0 1-.026.113.146.146 0 0 1-.042.063.091.091 0 0 1-.057.02h-1.108v3.568a.094.094 0 0 1-.023.062.15.15 0 0 1-.073.044.701.701 0 0 1-.139.027c-.057.007-.13.01-.217.01-.086 0-.159-.003-.217-.01a.735.735 0 0 1-.138-.027.158.158 0 0 1-.074-.044.094.094 0 0 1-.022-.062v-3.567h-1.108a.086.086 0 0 1-.058-.02.155.155 0 0 1-.041-.064.438.438 0 0 1-.026-.113 1.618 1.618 0 0 1 0-.344.448.448 0 0 1 .026-.114.141.141 0 0 1 .041-.062.091.091 0 0 1 .058-.019h3.119c.021 0 .039.007.057.02a.134.134 0 0 1 .042.06c.012.03.02.067.026.115.005.048.008.106.008.174ZM206.483 68.367c0 .21-.033.401-.097.576a1.2 1.2 0 0 1-.307.456c-.139.13-.32.234-.545.312-.225.077-.531.116-.918.116h-1.044a.374.374 0 0 1-.107-.015.217.217 0 0 1-.088-.052.273.273 0 0 1-.06-.089.345.345 0 0 1-.022-.128v-4.026c0-.023.008-.042.022-.06a.182.182 0 0 1 .075-.042.734.734 0 0 1 .141-.026 2.532 2.532 0 0 1 .433 0 .716.716 0 0 1 .137.026.157.157 0 0 1 .072.042c.013.018.02.038.02.06v1.53h.558c.331 0 .594.028.792.085a1.4 1.4 0 0 1 .502.253c.138.111.246.25.322.417.076.166.114.355.114.564Zm-.924.075a.846.846 0 0 0-.048-.294.547.547 0 0 0-.147-.223.68.68 0 0 0-.253-.143 1.522 1.522 0 0 0-.455-.052h-.461v1.406h.475c.21 0 .368-.021.474-.063a.64.64 0 0 0 .248-.164.61.61 0 0 0 .128-.225.801.801 0 0 0 .039-.242Zm2.364 1.269a.089.089 0 0 1-.023.06.16.16 0 0 1-.073.042.667.667 0 0 1-.139.026c-.057.005-.13.008-.217.008s-.158-.003-.215-.008a.712.712 0 0 1-.138-.026.168.168 0 0 1-.076-.042.089.089 0 0 1-.022-.06v-4.194c0-.023.007-.042.022-.06a.168.168 0 0 1 .076-.042.71.71 0 0 1 .139-.026 2.515 2.515 0 0 1 .431 0 .696.696 0 0 1 .139.026.16.16 0 0 1 .073.042.09.09 0 0 1 .023.06v4.194Z" fill="#5E6363"/></svg>