<svg width="12" height="12" viewBox="0 0 12 12" fill="none" xmlns="http://www.w3.org/2000/svg">
<path d="M3.125 9.5L3.125 2.5C3.125 1.29 3.79 0.625 5 0.625L7 0.625C8.21 0.625 8.875 1.29 8.875 2.5V9.5C8.875 10.71 8.21 11.375 7 11.375H5C3.79 11.375 3.125 10.71 3.125 9.5ZM8.125 2.5C8.125 1.71 7.79 1.375 7 1.375L5 1.375C4.21 1.375 3.875 1.71 3.875 2.5L3.875 9.5C3.875 10.29 4.21 10.625 5 10.625H7C7.79 10.625 8.125 10.29 8.125 9.5V2.5Z" fill="#333333"/>
<path d="M5.625 9C5.625 8.795 5.795 8.625 6 8.625H8.5C8.705 8.625 8.875 8.795 8.875 9C8.875 9.205 8.705 9.375 8.5 9.375H6C5.795 9.375 5.625 9.205 5.625 9Z" fill="#333333"/>
<path d="M6.125 3C6.125 2.795 6.295 2.625 6.5 2.625H8.5C8.705 2.625 8.875 2.795 8.875 3C8.875 3.205 8.705 3.375 8.5 3.375H6.5C6.295 3.375 6.125 3.205 6.125 3Z" fill="#333333"/>
<path d="M5.625 5C5.625 4.79 5.795 4.625 6.005 4.625L8.505 4.65C8.71 4.65 8.875 4.82 8.875 5.025C8.875 5.025 8.875 5.025 8.875 5.03C8.875 5.235 8.705 5.405 8.495 5.4L5.995 5.375C5.79 5.375 5.625 5.205 5.625 5Z" fill="#333333"/>
<path d="M6.625 7C6.625 6.795 6.795 6.625 7 6.625H8.5C8.705 6.625 8.875 6.795 8.875 7C8.875 7.205 8.705 7.375 8.5 7.375H7C6.795 7.375 6.625 7.205 6.625 7Z" fill="#333333"/>
</svg>
